<?xml version="1.0" standalone="no"?>
<!DOCTYPE svg PUBLIC "-//W3C//DTD SVG 20010904//EN"
 "http://www.w3.org/TR/2001/REC-SVG-20010904/DTD/svg10.dtd">
<svg version="1.0" xmlns="http://www.w3.org/2000/svg"
 width="50.000000pt" height="50.000000pt" viewBox="0 0 50.000000 50.000000"
 preserveAspectRatio="xMidYMid meet">

<g transform="translate(0.000000,50.000000) scale(0.100000,-0.100000)"
fill="#000000" stroke="none">
<path d="M194 428 c-9 -43 -31 -59 -60 -46 -31 15 -46 6 -69 -37 l-20 -37 23
-15 c14 -10 22 -26 22 -43 0 -17 -8 -33 -23 -43 l-22 -15 20 -37 c23 -43 38
-52 69 -37 29 13 51 -3 60 -46 7 -31 10 -32 56 -32 46 0 49 1 56 32 9 43 31
59 60 46 31 -15 46 -6 69 37 l20 37 -22 15 c-31 21 -31 65 0 86 l22 15 -20 37
c-23 43 -38 52 -69 37 -29 -13 -51 3 -60 46 -7 31 -10 32 -56 32 -46 0 -49 -1
-56 -32z m106 -128 c43 -43 11 -120 -50 -120 -38 0 -70 32 -70 70 0 17 9 39
20 50 11 11 33 20 50 20 17 0 39 -9 50 -20z"/>
</g>
</svg>
