<?xml version="1.0" standalone="no"?>
<!DOCTYPE svg PUBLIC "-//W3C//DTD SVG 20010904//EN"
 "http://www.w3.org/TR/2001/REC-SVG-20010904/DTD/svg10.dtd">
<svg version="1.0" xmlns="http://www.w3.org/2000/svg"
 width="50.000000pt" height="50.000000pt" viewBox="0 0 50.000000 50.000000"
 preserveAspectRatio="xMidYMid meet">

<g transform="translate(0.000000,50.000000) scale(0.100000,-0.100000)"
fill="#000000" stroke="none">
<path d="M100 235 l0 -216 153 3 152 3 0 210 0 210 -152 3 -153 3 0 -216z
m273 158 c10 -51 4 -53 -124 -53 l-119 0 0 40 0 40 119 0 119 0 5 -27z m-195
-140 c-2 -10 -12 -18 -23 -18 -11 0 -21 8 -23 18 -3 13 3 17 23 17 20 0 26 -4
23 -17z m70 0 c-2 -10 -12 -18 -23 -18 -11 0 -21 8 -23 18 -3 13 3 17 23 17
20 0 26 -4 23 -17z m70 0 c-2 -10 -12 -18 -23 -18 -11 0 -21 8 -23 18 -3 13 3
17 23 17 20 0 26 -4 23 -17z m37 8 c-3 -5 -1 -12 5 -16 5 -3 10 1 10 9 0 9 5
16 11 16 6 0 9 -8 7 -17 -2 -10 -12 -18 -23 -18 -11 0 -21 8 -23 18 -2 9 2 17
8 17 6 0 9 -4 5 -9z m-177 -68 c-2 -10 -13 -19 -26 -21 -17 -3 -22 2 -22 17 0
16 6 21 26 21 19 0 25 -5 22 -17z m70 0 c-2 -10 -13 -19 -26 -21 -17 -3 -22 2
-22 17 0 16 6 21 26 21 19 0 25 -5 22 -17z m70 0 c-2 -10 -13 -19 -26 -21 -17
-3 -22 2 -22 17 0 16 6 21 26 21 19 0 25 -5 22 -17z m70 0 c-2 -10 -13 -19
-26 -21 -17 -3 -22 2 -22 17 0 16 6 21 26 21 19 0 25 -5 22 -17z m-210 -65 c3
-13 -3 -18 -22 -18 -20 0 -26 5 -26 21 0 15 5 20 22 17 13 -2 24 -11 26 -20z
m70 0 c3 -13 -3 -18 -22 -18 -20 0 -26 5 -26 21 0 15 5 20 22 17 13 -2 24 -11
26 -20z m70 0 c3 -13 -3 -18 -22 -18 -20 0 -26 5 -26 21 0 15 5 20 22 17 13
-2 24 -11 26 -20z m70 -30 c3 -46 2 -48 -22 -48 -24 0 -26 3 -26 51 0 47 2 50
23 47 19 -3 22 -10 25 -50z m-210 -31 c3 -12 -3 -17 -22 -17 -25 0 -35 18 -19
34 12 12 38 2 41 -17z m70 0 c3 -12 -3 -17 -22 -17 -25 0 -35 18 -19 34 12 12
38 2 41 -17z m70 0 c3 -12 -3 -17 -22 -17 -25 0 -35 18 -19 34 12 12 38 2 41
-17z"/>
</g>
</svg>
